:SAMPLES-PER-SECOND 30
:FULLY-SPECIFIED
:DEGREES
129
root  -62.7111 41.2796 -2.39277 -177.687 -84.8743 171.648
RightUpLeg  -3.37807 -7.71329 -7.14026
RightLeg  8.13569 1.87395 1.09027
RightFoot  1.15293 -0.386025 3.59573
RightToes  5.82063e-011 0 -3.6325e-017
Spine  1.91716 -0.600703 0.871901
Spine1  6.49796 -0.792012 0.110178
HEad  -7.71542 5.22357 -6.41462
LeftShoulder1  5.19147 -9.05226 -35.2592
LeftArm  -10.758 11.256 -8.16376
LeftForeArm  29.497 -28.7604 -4.60668
LeftHand  -0.244104 0.0205437 5.32207
RightShoulder  4.48673 7.5661 34.5735
RightArm  -13.774 -16.1729 19.1407
RightForeArm  4.65885 12.4705 4.93936
RightHand  -1.3251 4.29996 -16.0513
LeftUpLeg  1.20338 4.81609 -1.52717
LeftLeg  4.87182 12.5095 -5.10166
LeftFoot  -1.20871 -0.617159 7.03475
LeftToes  3.81955e-011 1.3492e-010 1.36421e-011
130
root  -63.1281 41.3493 -2.40946 179.401 -84.5954 174.864
RightUpLeg  -2.42987 -7.68138 -7.04318
RightLeg  6.89339 2.08571 1.42668
RightFoot  1.50499 -0.36122 3.29904
RightToes  5.82063e-011 0 -3.6325e-017
Spine  1.3224 -0.436313 1.31129
Spine1  6.11604 -0.726746 0.560987
HEad  -6.69615 5.41824 -5.78567
LeftShoulder1  4.55046 -8.41709 -32.1151
LeftArm  -8.89809 10.8807 -5.6276
LeftForeArm  24.015 -19.2988 -3.6245
LeftHand  -0.244104 0.0205437 5.32207
RightShoulder  3.8461 6.85006 31.1805
RightArm  -15.2272 -13.9747 13.6666
RightForeArm  3.25644 11.3425 4.73506
RightHand  -1.3867 4.49055 -16.4663
LeftUpLeg  2.08435 4.93907 -1.21506
LeftLeg  3.93049 12.5296 -5.28061
LeftFoot  -1.55417 -0.578228 6.85505
LeftToes  3.81955e-011 1.3492e-010 1.36421e-011
131
root  -63.506 41.4174 -2.43793 177.038 -84.3481 177.742
RightUpLeg  -1.8664 -7.36826 -6.77909
RightLeg  5.86474 1.96935 1.52998
RightFoot  1.67257 -0.318186 2.88774
RightToes  5.82063e-011 0 -3.6325e-017
Spine  0.636985 -0.222952 1.82368
Spine1  5.91391 -0.577268 0.878798
HEad  -6.15369 5.43926 -5.29652
LeftShoulder1  3.96176 -7.75078 -29.11
LeftArm  -11.4361 10.5857 -2.76086
LeftForeArm  22.2614 -11.4737 -4.2188
LeftHand  -0.244104 0.0205437 5.32207
RightShoulder  3.0481 5.69767 27.0688
RightArm  -17.2036 -11.5164 9.16104
RightForeArm  0.855822 9.97276 4.43422
RightHand  -1.39979 4.37235 -16.811
LeftUpLeg  2.52997 4.86226 -1.01591
LeftLeg  3.19354 12.7458 -5.26037
LeftFoot  -1.82868 -0.546436 6.69211
LeftToes  3.81955e-011 1.3492e-010 1.36421e-011
132
root  -63.8363 41.4636 -2.47165 175.283 -83.9669 -179.953
RightUpLeg  -1.53255 -7.14652 -6.53623
RightLeg  4.95508 2.00731 1.65886
RightFoot  1.62247 -0.31341 2.85461
RightToes  5.82063e-011 0 -3.6325e-017
Spine  0.24352 0.0141783 2.71077
Spine1  5.63521 -0.265888 0.524667
HEad  -6.21849 5.28633 -4.95887
LeftShoulder1  3.39283 -6.94942 -26.2758
LeftArm  -13.2855 11.0313 0.0357973
LeftForeArm  19.2548 -7.40931 -3.4852
LeftHand  -0.244104 0.0205437 5.32207
RightShoulder  2.29199 4.38717 22.8148
RightArm  -19.3058 -8.98923 5.60185
RightForeArm  -3.42268 8.52442 4.1484
RightHand  -1.35519 3.85948 -17.1565
LeftUpLeg  2.6282 4.72707 -0.898983
LeftLeg  2.90788 13.2014 -5.05264
LeftFoot  -2.17185 -0.509766 6.51322
LeftToes  3.81955e-011 1.3492e-010 1.36421e-011
133
root  -64.1222 41.4925 -2.51614 174.597 -83.5101 -178.849
RightUpLeg  -1.30265 -7.1083 -6.41142
RightLeg  4.32495 2.3289 1.85478
RightFoot  1.66814 -0.309037 2.80936
RightToes  5.82063e-011 0 -3.6325e-017
Spine  0.246171 0.250713 3.79451
Spine1  5.23553 0.163776 -0.362323
HEad  -6.63789 4.96548 -4.48329
LeftShoulder1  2.78996 -5.86022 -23.4782
LeftArm  -14.484 11.968 2.37236
LeftForeArm  14.1931 -7.02289 -2.86013
LeftHand  -0.244104 0.0205437 5.32207
RightShoulder  1.71096 3.24271 18.8836
RightArm  -20.8209 -6.84902 2.65428
RightForeArm  -9.05096 7.56948 4.10246
RightHand  -1.38429 3.58744 -18.0136
LeftUpLeg  2.80689 4.62735 -0.827807
LeftLeg  2.62285 13.6948 -4.90825
LeftFoot  -2.48355 -0.474102 6.30848
LeftToes  3.81955e-011 1.3492e-010 1.36421e-011
134
root  -64.3717 41.5194 -2.58669 174.633 -83.1794 -178.567
RightUpLeg  -1.19605 -7.0959 -6.29333
RightLeg  4.12043 2.59949 1.94937
RightFoot  1.70764 -0.26765 2.44057
RightToes  5.82063e-011 0 -3.6325e-017
Spine  0.36282 0.469347 4.65035
Spine1  4.89813 0.581368 -1.22542
HEad  -7.11899 4.55819 -3.8462
LeftShoulder1  2.21056 -4.63216 -20.6928
LeftArm  -15.1839 12.7586 3.96731
LeftForeArm  7.01319 -8.41382 -2.87737
LeftHand  -0.244104 0.0205437 5.32207
RightShoulder  1.27399 2.24164 15.4095
RightArm  -21.8461 -5.26159 0.227303
RightForeArm  -13.433 7.52488 4.22459
RightHand  -1.47588 3.69878 -18.9533
LeftUpLeg  3.14147 4.59525 -0.733676
LeftLeg  2.139 13.9708 -4.94011
LeftFoot  -2.70001 -0.442441 6.06615
LeftToes  3.81955e-011 1.3492e-010 1.36421e-011
135
root  -64.5904 41.546 -2.69061 174.64 -83.131 -178.246
RightUpLeg  -1.14672 -7.05345 -6.12137
RightLeg  4.04735 2.53056 1.98138
RightFoot  1.54888 -0.213495 1.98242
RightToes  5.82063e-011 0 -3.6325e-017
Spine  0.399245 0.64773 5.10659
Spine1  4.56724 0.894682 -1.78229
HEad  -7.35771 4.07412 -3.22484
LeftShoulder1  1.74625 -3.59404 -17.9196
LeftArm  -17.841 13.2344 5.28703
LeftForeArm  7.16008 -9.99426 -1.99724
LeftHand  -0.244104 0.0205437 5.32207
RightShoulder  0.910733 1.20285 12.2906
RightArm  -23.0002 -4.1043 -1.48048
RightForeArm  -14.6529 8.23077 4.22838
RightHand  -1.4677 3.59153 -19.0615
LeftUpLeg  3.3416 4.6408 -0.548559
LeftLeg  1.8153 13.8974 -5.02031
LeftFoot  -2.93483 -0.408384 5.79274
LeftToes  3.81955e-011 1.3492e-010 1.36421e-011
136
root  -64.7843 41.5676 -2.81721 174.275 -83.36 -177.545
RightUpLeg  -0.981703 -7.09931 -5.97591
RightLeg  3.76279 2.24999 2.13174
RightFoot  1.36288 -0.17605 1.66466
RightToes  5.82063e-011 0 -3.6325e-017
Spine  0.388655 0.73887 5.29259
Spine1  4.18098 1.0718 -2.14537
HEad  -7.2471 3.50176 -2.61646
LeftShoulder1  1.36262 -2.67166 -15.146
LeftArm  -20.3905 13.3001 5.88727
LeftForeArm  8.09877 -11.643 -1.41049
LeftHand  -0.244104 0.0205437 5.32207
RightShoulder  0.61547 0.149255 9.51953
RightArm  -24.2203 -3.08336 -2.42397
RightForeArm  -13.9166 9.06414 4.13776
RightHand  -1.38769 3.34261 -18.5509
LeftUpLeg  3.33482 4.68611 -0.318979
LeftLeg  1.80349 13.5798 -4.98491
LeftFoot  -3.20766 -0.373211 5.51743
LeftToes  3.81955e-011 1.3492e-010 1.36421e-011
